<svg width="112" height="112" viewBox="0 0 112 112" fill="none" xmlns="http://www.w3.org/2000/svg">
<circle cx="56" cy="56" r="53.5" fill="#FFD90E" stroke="black" stroke-width="5"/>
<path d="M29.5195 56.1525L37.8271 52.518V43.172L47.1731 48.3642L55.4806 44.7296L37.8271 34.3452L29.5195 38.499V56.1525Z" fill="black"/>
<path d="M82.999 38.4998L75.7299 34.8652L66.3839 40.0574L72.6146 43.1728L29 63.4224V73.8068L35.7499 76.9222L45.6151 72.7684L39.3844 69.1339L82.999 49.4034V38.4998Z" fill="black"/>
<path d="M83.0001 72.7689V56.1538L75.2118 59.2691V68.6151L65.3466 63.9421L57.0391 68.6151L75.2118 77.4419L83.0001 72.7689Z" fill="black"/>
<path d="M56.5193 77.9607L51.8463 75.8838L43.0195 80.0376L56.5193 87.3067L70.019 80.0376L62.2307 75.8838L56.5193 77.9607Z" fill="black"/>
<path d="M56.5193 25L43.0195 31.7499L51.3271 36.9421L56.5193 34.346L60.6731 36.9421L70.019 32.7883L56.5193 25Z" fill="black"/>
</svg>
